<svg width="16" height="16" viewBox="0 0 16 16" fill="none" xmlns="http://www.w3.org/2000/svg">
<rect width="16" height="16" fill="#202020"/>
<path d="M4.13126 4H5.10001V9.71875C5.10001 10.2292 5.00626 10.6628 4.81876 11.0195C4.63126 11.3763 4.36693 11.6471 4.02579 11.832C3.68464 12.0169 3.2823 12.1094 2.81876 12.1094C2.38126 12.1094 1.99193 12.0299 1.65079 11.8711C1.30964 11.7096 1.04141 11.4805 0.8461 11.1836C0.650787 10.8867 0.553131 10.5339 0.553131 10.125H1.50626C1.50626 10.3516 1.56225 10.5495 1.67422 10.7187C1.78881 10.8854 1.94506 11.0156 2.14297 11.1094C2.34089 11.2031 2.56615 11.25 2.81876 11.25C3.0974 11.25 3.33438 11.1914 3.52969 11.0742C3.72501 10.957 3.87344 10.7852 3.97501 10.5586C4.07917 10.3294 4.13126 10.0495 4.13126 9.71875V4ZM7.21231 12.0625C7.0196 12.0625 6.85424 11.9935 6.71622 11.8555C6.5782 11.7174 6.50919 11.5521 6.50919 11.3594C6.50919 11.1667 6.5782 11.0013 6.71622 10.8633C6.85424 10.7253 7.0196 10.6562 7.21231 10.6562C7.40502 10.6562 7.57038 10.7253 7.7084 10.8633C7.84643 11.0013 7.91544 11.1667 7.91544 11.3594C7.91544 11.487 7.88288 11.6042 7.81778 11.7109C7.75528 11.8177 7.67064 11.9036 7.56387 11.9687C7.45971 12.0313 7.34252 12.0625 7.21231 12.0625ZM9.56973 12V6H10.4916V12H9.56973ZM10.0385 5C9.8588 5 9.70385 4.9388 9.57364 4.81641C9.44603 4.69401 9.38223 4.54688 9.38223 4.375C9.38223 4.20313 9.44603 4.05599 9.57364 3.93359C9.70385 3.8112 9.8588 3.75 10.0385 3.75C10.2182 3.75 10.3718 3.8112 10.4994 3.93359C10.6296 4.05599 10.6947 4.20313 10.6947 4.375C10.6947 4.54688 10.6296 4.69401 10.4994 4.81641C10.3718 4.9388 10.2182 5 10.0385 5ZM14.7895 6V6.78125H11.6801V6H14.7895ZM12.5863 4.5625H13.5082V10.2812C13.5082 10.5417 13.546 10.737 13.6215 10.8672C13.6996 10.9948 13.7986 11.0807 13.9184 11.125C14.0408 11.1667 14.1697 11.1875 14.3051 11.1875C14.4066 11.1875 14.49 11.1823 14.5551 11.1719C14.6202 11.1589 14.6723 11.1484 14.7113 11.1406L14.8988 11.9687C14.8363 11.9922 14.7491 12.0156 14.6371 12.0391C14.5251 12.0651 14.3832 12.0781 14.2113 12.0781C13.9509 12.0781 13.6957 12.0221 13.4457 11.9102C13.1983 11.7982 12.9926 11.6276 12.8285 11.3984C12.6671 11.1693 12.5863 10.8802 12.5863 10.5312V4.5625Z" fill="#EAEAEA"/>
</svg>
