<svg width="32" height="32" viewBox="0 0 32 32" fill="none" xmlns="http://www.w3.org/2000/svg">
<rect width="32" height="32" fill="#202020"/>
<path d="M8.26251 8H10.2V19.4375C10.2 20.4583 10.0125 21.3255 9.63751 22.0391C9.26251 22.7526 8.73387 23.2943 8.05158 23.6641C7.36928 24.0339 6.5646 24.2187 5.63751 24.2187C4.76251 24.2187 3.98387 24.0599 3.30157 23.7422C2.61928 23.4193 2.08282 22.9609 1.6922 22.3672C1.30157 21.7734 1.10626 21.0677 1.10626 20.25H3.01251C3.01251 20.7031 3.12449 21.099 3.34845 21.4375C3.57762 21.7708 3.89012 22.0312 4.28595 22.2187C4.68178 22.4062 5.1323 22.5 5.63751 22.5C6.1948 22.5 6.66876 22.3828 7.05939 22.1484C7.45001 21.9141 7.74689 21.5703 7.95001 21.1172C8.15835 20.6589 8.26251 20.099 8.26251 19.4375V8ZM14.4246 24.125C14.0392 24.125 13.7085 23.987 13.4324 23.7109C13.1564 23.4349 13.0184 23.1042 13.0184 22.7187C13.0184 22.3333 13.1564 22.0026 13.4324 21.7266C13.7085 21.4505 14.0392 21.3125 14.4246 21.3125C14.81 21.3125 15.1408 21.4505 15.4168 21.7266C15.6929 22.0026 15.8309 22.3333 15.8309 22.7187C15.8309 22.974 15.7658 23.2083 15.6356 23.4219C15.5106 23.6354 15.3413 23.8073 15.1277 23.9375C14.9194 24.0625 14.685 24.125 14.4246 24.125ZM19.1395 24V12H20.9832V24H19.1395ZM20.077 10C19.7176 10 19.4077 9.8776 19.1473 9.63281C18.8921 9.38802 18.7645 9.09375 18.7645 8.75C18.7645 8.40625 18.8921 8.11198 19.1473 7.86719C19.4077 7.6224 19.7176 7.5 20.077 7.5C20.4363 7.5 20.7436 7.6224 20.9988 7.86719C21.2593 8.11198 21.3895 8.40625 21.3895 8.75C21.3895 9.09375 21.2593 9.38802 20.9988 9.63281C20.7436 9.8776 20.4363 10 20.077 10ZM29.5789 12V13.5625H23.3602V12H29.5789ZM25.1727 9.125H27.0164V20.5625C27.0164 21.0833 27.0919 21.474 27.243 21.7344C27.3992 21.9896 27.5971 22.1615 27.8367 22.25C28.0815 22.3333 28.3393 22.375 28.6102 22.375C28.8133 22.375 28.98 22.3646 29.1102 22.3437C29.2404 22.3177 29.3445 22.2969 29.4227 22.2812L29.7977 23.9375C29.6727 23.9844 29.4982 24.0313 29.2742 24.0781C29.0503 24.1302 28.7664 24.1563 28.4227 24.1563C27.9018 24.1563 27.3914 24.0443 26.8914 23.8203C26.3966 23.5964 25.9852 23.2552 25.657 22.7969C25.3341 22.3385 25.1727 21.7604 25.1727 21.0625V9.125Z" fill="#EAEAEA"/>
</svg>
