<svg width="128" height="128" viewBox="0 0 128 128" fill="none" xmlns="http://www.w3.org/2000/svg">
<rect width="128" height="128" fill="#202020"/>
<path d="M33.05 30H40.8001V75.75C40.8001 79.8333 40.05 83.3021 38.55 86.1562C37.05 89.0104 34.9355 91.1771 32.2063 92.6562C29.4771 94.1354 26.2584 94.875 22.55 94.875C19.05 94.875 15.9355 94.2396 13.2063 92.9688C10.4771 91.6771 8.3313 89.8437 6.7688 87.4688C5.2063 85.0937 4.42505 82.2708 4.42505 79H12.05C12.05 80.8125 12.498 82.3958 13.3938 83.75C14.3105 85.0833 15.5605 86.125 17.1438 86.875C18.7271 87.625 20.5292 88 22.55 88C24.7792 88 26.675 87.5312 28.2375 86.5937C29.8001 85.6562 30.9876 84.2812 31.8001 82.4687C32.6334 80.6354 33.05 78.3958 33.05 75.75V30ZM57.6985 94.5C56.1568 94.5 54.8339 93.9479 53.7297 92.8437C52.6256 91.7396 52.0735 90.4167 52.0735 88.875C52.0735 87.3333 52.6256 86.0104 53.7297 84.9062C54.8339 83.8021 56.1568 83.25 57.6985 83.25C59.2402 83.25 60.5631 83.8021 61.6672 84.9062C62.7714 86.0104 63.3235 87.3333 63.3235 88.875C63.3235 89.8958 63.0631 90.8333 62.5422 91.6875C62.0422 92.5417 61.3652 93.2292 60.511 93.75C59.6777 94.25 58.7402 94.5 57.6985 94.5ZM76.5579 94V46H83.9329V94H76.5579ZM80.3079 38C78.8704 38 77.6308 37.5104 76.5891 36.5312C75.5683 35.5521 75.0579 34.375 75.0579 33C75.0579 31.625 75.5683 30.4479 76.5891 29.4687C77.6308 28.4896 78.8704 28 80.3079 28C81.7454 28 82.9745 28.4896 83.9954 29.4687C85.037 30.4479 85.5579 31.625 85.5579 33C85.5579 34.375 85.037 35.5521 83.9954 36.5312C82.9745 37.5104 81.7454 38 80.3079 38ZM118.316 46V52.25H93.4407V46H118.316ZM100.691 34.5H108.066V80.25C108.066 82.3333 108.368 83.8958 108.972 84.9375C109.597 85.9583 110.389 86.6458 111.347 87C112.326 87.3333 113.357 87.5 114.441 87.5C115.253 87.5 115.92 87.4583 116.441 87.375C116.962 87.2708 117.378 87.1875 117.691 87.125L119.191 93.75C118.691 93.9375 117.993 94.125 117.097 94.3125C116.201 94.5208 115.066 94.625 113.691 94.625C111.607 94.625 109.566 94.1771 107.566 93.2812C105.587 92.3854 103.941 91.0208 102.628 89.1875C101.337 87.3542 100.691 85.0417 100.691 82.25V34.5Z" fill="#EAEAEA"/>
</svg>
