<svg width="256" height="256" viewBox="0 0 256 256" fill="none" xmlns="http://www.w3.org/2000/svg">
<rect width="256" height="256" fill="#202020"/>
<path d="M66.1 59H81.6V150.5C81.6 158.667 80.1 165.604 77.1 171.312C74.1 177.021 69.8708 181.354 64.4125 184.312C58.9541 187.271 52.5166 188.75 45.1 188.75C38.1 188.75 31.8708 187.479 26.4125 184.938C20.9541 182.354 16.6625 178.687 13.5375 173.938C10.4125 169.187 8.84998 163.542 8.84998 157H24.1C24.1 160.625 24.9958 163.792 26.7875 166.5C28.6208 169.167 31.1208 171.25 34.2875 172.75C37.4541 174.25 41.0583 175 45.1 175C49.5583 175 53.35 174.062 56.475 172.187C59.6 170.312 61.975 167.562 63.6 163.937C65.2666 160.271 66.1 155.792 66.1 150.5V59ZM115.397 188C112.314 188 109.668 186.896 107.459 184.687C105.251 182.479 104.147 179.833 104.147 176.75C104.147 173.667 105.251 171.021 107.459 168.812C109.668 166.604 112.314 165.5 115.397 165.5C118.48 165.5 121.126 166.604 123.334 168.812C125.543 171.021 126.647 173.667 126.647 176.75C126.647 178.792 126.126 180.667 125.084 182.375C124.084 184.083 122.73 185.458 121.022 186.5C119.355 187.5 117.48 188 115.397 188ZM153.116 187V91H167.866V187H153.116ZM160.616 75C157.741 75 155.261 74.0208 153.178 72.0625C151.136 70.1042 150.116 67.75 150.116 65C150.116 62.25 151.136 59.8958 153.178 57.9375C155.261 55.9792 157.741 55 160.616 55C163.491 55 165.949 55.9792 167.991 57.9375C170.074 59.8958 171.116 62.25 171.116 65C171.116 67.75 170.074 70.1042 167.991 72.0625C165.949 74.0208 163.491 75 160.616 75ZM236.631 91V103.5H186.881V91H236.631ZM201.381 68H216.131V159.5C216.131 163.667 216.735 166.792 217.944 168.875C219.194 170.917 220.777 172.292 222.694 173C224.652 173.667 226.715 174 228.881 174C230.506 174 231.84 173.917 232.881 173.75C233.923 173.542 234.756 173.375 235.381 173.25L238.381 186.5C237.381 186.875 235.985 187.25 234.194 187.625C232.402 188.042 230.131 188.25 227.381 188.25C223.215 188.25 219.131 187.354 215.131 185.562C211.173 183.771 207.881 181.042 205.256 177.375C202.673 173.708 201.381 169.083 201.381 163.5V68Z" fill="#EAEAEA"/>
</svg>
